<svg
      xmlns="http://www.w3.org/2000/svg"
      version="1.1"
      viewBox="0 0 679.98 701.881"
    >
      <g>
        <g transform="translate(119.99 119.8)">
          <path d="M244.41 335.7c0 100.63-81.574 182.2-182.2 182.2s-182.2-81.574-182.2-182.2 81.574-182.2 182.2-182.2 182.2 81.574 182.2 182.2z"></path>
          <path d="M559.99 335.7c0 100.63-81.574 182.2-182.2 182.2s-182.2-81.574-182.2-182.2 81.574-182.2 182.2-182.2 182.2 81.574 182.2 182.2z"></path>
          <path d="M402.2 62.4c0 100.63-81.57 182.2-182.2 182.2S37.8 163.03 37.8 62.4 119.37-119.8 220-119.8 402.2-38.226 402.2 62.4z"></path>
        </g>
        <path d="M295 544.91H385V701.88H295z"></path>
      </g>
    </svg>