<svg
      xmlns="http://www.w3.org/2000/svg"
      width="1516"
      height="1706.667"
      version="1"
      viewBox="0 0 1137 1280"
    >
      <path
        d="M5627 12712c-315-496-846-1081-1469-1618-336-290-572-477-1253-994-481-365-783-597-945-729C793 8423 261 7682 90 6767-85 5833 2 5022 340 4434c107-186 181-284 330-437 486-502 1192-767 2115-793 682-20 1270 122 1723 416 252 163 499 410 662 661l42 64-7-100c-26-416-91-1059-140-1383-200-1321-628-2032-1497-2486-256-134-533-236-903-331L2495 1h6370l-185 49c-345 91-577 175-840 307-536 267-911 642-1160 1158-247 514-387 1169-480 2245-31 362-47 575-44 578 1 2 27-34 57-80 305-460 762-781 1342-944 124-35 303-69 475-91 199-24 698-24 915 1 760 88 1302 313 1718 715 630 609 838 1543 622 2790-162 927-690 1674-1860 2627-174 142-441 348-933 721-890 676-1206 933-1653 1349-422 393-837 879-1099 1286l-57 89-56-89z"
        transform="matrix(.1 0 0 -.1 0 1280)"
      ></path>
    </svg>